 <?xml version="1.0" encoding="us-ascii" standalone="no"?><svg xmlns="http://www.w3.org/2000/svg" xmlns:xlink="http://www.w3.org/1999/xlink" contentStyleType="text/css" height="691px" preserveAspectRatio="none" style="width:1510px;height:691px;background:#FFFFFF;" version="1.1" viewBox="0 0 1510 691" width="1510px" zoomAndPan="magnify"><defs/><g><rect fill="#FFFFFF" height="313.7949" style="stroke:#181818;stroke-width:1.0;" width="10" x="663" y="287.3516"/><line style="stroke:#181818;stroke-width:0.5;stroke-dasharray:5.0,5.0;" x1="80" x2="80" y1="81.4883" y2="610.1465"/><line style="stroke:#181818;stroke-width:0.5;stroke-dasharray:5.0,5.0;" x1="219" x2="219" y1="81.4883" y2="610.1465"/><line style="stroke:#181818;stroke-width:0.5;stroke-dasharray:5.0,5.0;" x1="386.5" x2="386.5" y1="81.4883" y2="610.1465"/><line style="stroke:#181818;stroke-width:0.5;stroke-dasharray:5.0,5.0;" x1="519" x2="519" y1="81.4883" y2="610.1465"/><line style="stroke:#181818;stroke-width:0.5;stroke-dasharray:5.0,5.0;" x1="668" x2="668" y1="81.4883" y2="610.1465"/><line style="stroke:#181818;stroke-width:0.5;stroke-dasharray:5.0,5.0;" x1="877" x2="877" y1="81.4883" y2="610.1465"/><line style="stroke:#181818;stroke-width:0.5;stroke-dasharray:5.0,5.0;" x1="1082" x2="1082" y1="81.4883" y2="610.1465"/><line style="stroke:#181818;stroke-width:0.5;stroke-dasharray:5.0,5.0;" x1="1248.5" x2="1248.5" y1="81.4883" y2="610.1465"/><line style="stroke:#181818;stroke-width:0.5;stroke-dasharray:5.0,5.0;" x1="1452" x2="1452" y1="81.4883" y2="610.1465"/><text fill="#000000" font-family="sans-serif" font-size="14" lengthAdjust="spacing" textLength="145" x="5" y="78.5352">CREATE TABLE Query</text><ellipse cx="80.5" cy="13.5" fill="#E2E2F0" rx="8" ry="8" style="stroke:#181818;stroke-width:0.5;"/><path d="M80.5,21.5 L80.5,48.5 M67.5,29.5 L93.5,29.5 M80.5,48.5 L67.5,63.5 M80.5,48.5 L93.5,63.5 " fill="none" style="stroke:#181818;stroke-width:0.5;"/><text fill="#000000" font-family="sans-serif" font-size="14" lengthAdjust="spacing" textLength="145" x="5" y="622.6816">CREATE TABLE Query</text><ellipse cx="80.5" cy="634.1348" fill="#E2E2F0" rx="8" ry="8" style="stroke:#181818;stroke-width:0.5;"/><path d="M80.5,642.1348 L80.5,669.1348 M67.5,650.1348 L93.5,650.1348 M80.5,669.1348 L67.5,684.1348 M80.5,669.1348 L93.5,684.1348 " fill="none" style="stroke:#181818;stroke-width:0.5;"/><rect fill="#E2E2F0" height="30.4883" rx="2.5" ry="2.5" style="stroke:#181818;stroke-width:0.5;" width="106" x="166" y="50"/><text fill="#000000" font-family="sans-serif" font-size="14" lengthAdjust="spacing" textLength="92" x="173" y="70.5352">MySQL Server</text><rect fill="#E2E2F0" height="30.4883" rx="2.5" ry="2.5" style="stroke:#181818;stroke-width:0.5;" width="106" x="166" y="609.1465"/><text fill="#000000" font-family="sans-serif" font-size="14" lengthAdjust="spacing" textLength="92" x="173" y="629.6816">MySQL Server</text><rect fill="#E2E2F0" height="30.4883" rx="2.5" ry="2.5" style="stroke:#181818;stroke-width:0.5;" width="71" x="351.5" y="50"/><text fill="#000000" font-family="sans-serif" font-size="14" lengthAdjust="spacing" textLength="57" x="358.5" y="70.5352">Runtime</text><rect fill="#E2E2F0" height="30.4883" rx="2.5" ry="2.5" style="stroke:#181818;stroke-width:0.5;" width="71" x="351.5" y="609.1465"/><text fill="#000000" font-family="sans-serif" font-size="14" lengthAdjust="spacing" textLength="57" x="358.5" y="629.6816">Runtime</text><rect fill="#E2E2F0" height="30.4883" rx="2.5" ry="2.5" style="stroke:#181818;stroke-width:0.5;" width="118" x="460" y="50"/><text fill="#000000" font-family="sans-serif" font-size="14" lengthAdjust="spacing" textLength="104" x="467" y="70.5352">Data Dictionary</text><rect fill="#E2E2F0" height="30.4883" rx="2.5" ry="2.5" style="stroke:#181818;stroke-width:0.5;" width="118" x="460" y="609.1465"/><text fill="#000000" font-family="sans-serif" font-size="14" lengthAdjust="spacing" textLength="104" x="467" y="629.6816">Data Dictionary</text><rect fill="#E2E2F0" height="30.4883" rx="2.5" ry="2.5" style="stroke:#181818;stroke-width:0.5;" width="160" x="588" y="50"/><text fill="#000000" font-family="sans-serif" font-size="14" lengthAdjust="spacing" textLength="146" x="595" y="70.5352">Data Dictionary Table</text><rect fill="#E2E2F0" height="30.4883" rx="2.5" ry="2.5" style="stroke:#181818;stroke-width:0.5;" width="160" x="588" y="609.1465"/><text fill="#000000" font-family="sans-serif" font-size="14" lengthAdjust="spacing" textLength="146" x="595" y="629.6816">Data Dictionary Table</text><rect fill="#E2E2F0" height="30.4883" rx="2.5" ry="2.5" style="stroke:#181818;stroke-width:0.5;" width="239" x="758" y="50"/><text fill="#000000" font-family="sans-serif" font-size="14" lengthAdjust="spacing" textLength="225" x="765" y="70.5352">Serialized Dictionary Information</text><rect fill="#E2E2F0" height="30.4883" rx="2.5" ry="2.5" style="stroke:#181818;stroke-width:0.5;" width="239" x="758" y="609.1465"/><text fill="#000000" font-family="sans-serif" font-size="14" lengthAdjust="spacing" textLength="225" x="765" y="629.6816">Serialized Dictionary Information</text><rect fill="#E2E2F0" height="30.4883" rx="2.5" ry="2.5" style="stroke:#181818;stroke-width:0.5;" width="91" x="1037" y="50"/><text fill="#000000" font-family="sans-serif" font-size="14" lengthAdjust="spacing" textLength="77" x="1044" y="70.5352">Handlerton</text><rect fill="#E2E2F0" height="30.4883" rx="2.5" ry="2.5" style="stroke:#181818;stroke-width:0.5;" width="91" x="1037" y="609.1465"/><text fill="#000000" font-family="sans-serif" font-size="14" lengthAdjust="spacing" textLength="77" x="1044" y="629.6816">Handlerton</text><rect fill="#E2E2F0" height="30.4883" rx="2.5" ry="2.5" style="stroke:#181818;stroke-width:0.5;" width="118" x="1189.5" y="50"/><text fill="#000000" font-family="sans-serif" font-size="14" lengthAdjust="spacing" textLength="104" x="1196.5" y="70.5352">Storage Engine</text><rect fill="#E2E2F0" height="30.4883" rx="2.5" ry="2.5" style="stroke:#181818;stroke-width:0.5;" width="118" x="1189.5" y="609.1465"/><text fill="#000000" font-family="sans-serif" font-size="14" lengthAdjust="spacing" textLength="104" x="1196.5" y="629.6816">Storage Engine</text><rect fill="#E2E2F0" height="30.4883" rx="2.5" ry="2.5" style="stroke:#181818;stroke-width:0.5;" width="91" x="1407" y="50"/><text fill="#000000" font-family="sans-serif" font-size="14" lengthAdjust="spacing" textLength="77" x="1414" y="70.5352">Tablespace</text><rect fill="#E2E2F0" height="30.4883" rx="2.5" ry="2.5" style="stroke:#181818;stroke-width:0.5;" width="91" x="1407" y="609.1465"/><text fill="#000000" font-family="sans-serif" font-size="14" lengthAdjust="spacing" textLength="77" x="1414" y="629.6816">Tablespace</text><rect fill="#FFFFFF" height="313.7949" style="stroke:#181818;stroke-width:1.0;" width="10" x="663" y="287.3516"/><polygon fill="#181818" points="207,108.7988,217,112.7988,207,116.7988,211,112.7988" style="stroke:#181818;stroke-width:1.0;"/><line style="stroke:#181818;stroke-width:1.0;" x1="80.5" x2="213" y1="112.7988" y2="112.7988"/><text fill="#000000" font-family="sans-serif" font-size="13" lengthAdjust="spacing" textLength="108" x="87.5" y="108.0566">DDL QUERY TEXT</text><rect fill="#EEEEEE" height="3" style="stroke:#EEEEEE;stroke-width:1.0;" width="1503" x="0" y="141.4541"/><line style="stroke:#000000;stroke-width:1.0;" x1="0" x2="1503" y1="141.4541" y2="141.4541"/><line style="stroke:#000000;stroke-width:1.0;" x1="0" x2="1503" y1="144.4541" y2="144.4541"/><rect fill="#EEEEEE" height="23.3105" style="stroke:#000000;stroke-width:2.0;" width="27" x="738" y="130.7988"/><text fill="#000000" font-family="sans-serif" font-size="13" font-weight="bold" lengthAdjust="spacing" textLength="9" x="744" y="147.3672">...</text><polygon fill="#181818" points="375,181.4199,385,185.4199,375,189.4199,379,185.4199" style="stroke:#181818;stroke-width:1.0;"/><line style="stroke:#181818;stroke-width:1.0;" x1="219" x2="381" y1="185.4199" y2="185.4199"/><text fill="#000000" font-family="sans-serif" font-size="13" lengthAdjust="spacing" textLength="144" x="226" y="180.6777">( execution code path )</text><rect fill="#EEEEEE" height="3" style="stroke:#EEEEEE;stroke-width:1.0;" width="1503" x="0" y="214.0752"/><line style="stroke:#000000;stroke-width:1.0;" x1="0" x2="1503" y1="214.0752" y2="214.0752"/><line style="stroke:#000000;stroke-width:1.0;" x1="0" x2="1503" y1="217.0752" y2="217.0752"/><rect fill="#EEEEEE" height="23.3105" style="stroke:#000000;stroke-width:2.0;" width="122" x="690.5" y="203.4199"/><text fill="#000000" font-family="sans-serif" font-size="13" font-weight="bold" lengthAdjust="spacing" textLength="104" x="696.5" y="219.9883">Data Dictionary</text><polygon fill="#181818" points="507,254.041,517,258.041,507,262.041,511,258.041" style="stroke:#181818;stroke-width:1.0;"/><line style="stroke:#181818;stroke-width:1.0;" x1="387" x2="513" y1="258.041" y2="258.041"/><text fill="#000000" font-family="sans-serif" font-size="13" lengthAdjust="spacing" textLength="108" x="394" y="253.2988">dd::create_table()</text><polygon fill="#181818" points="651,283.3516,661,287.3516,651,291.3516,655,287.3516" style="stroke:#181818;stroke-width:1.0;"/><line style="stroke:#181818;stroke-width:1.0;" x1="519" x2="657" y1="287.3516" y2="287.3516"/><text fill="#000000" font-family="sans-serif" font-size="13" lengthAdjust="spacing" textLength="102" x="526" y="282.6094">build dd::Table()</text><polygon fill="#181818" points="398,312.6621,388,316.6621,398,320.6621,394,316.6621" style="stroke:#181818;stroke-width:1.0;"/><line style="stroke:#181818;stroke-width:1.0;stroke-dasharray:2.0,2.0;" x1="392" x2="662" y1="316.6621" y2="316.6621"/><text fill="#000000" font-family="sans-serif" font-size="13" lengthAdjust="spacing" textLength="111" x="404" y="311.9199">dd:Table instance</text><rect fill="#EEEEEE" height="3" style="stroke:#EEEEEE;stroke-width:1.0;" width="1503" x="0" y="345.3174"/><line style="stroke:#000000;stroke-width:1.0;" x1="0" x2="1503" y1="345.3174" y2="345.3174"/><line style="stroke:#000000;stroke-width:1.0;" x1="0" x2="1503" y1="348.3174" y2="348.3174"/><rect fill="#EEEEEE" height="23.3105" style="stroke:#000000;stroke-width:2.0;" width="240" x="631.5" y="334.6621"/><text fill="#000000" font-family="sans-serif" font-size="13" font-weight="bold" lengthAdjust="spacing" textLength="222" x="637.5" y="351.2305">Serialized Dictionary Information</text><polygon fill="#181818" points="507,385.2832,517,389.2832,507,393.2832,511,389.2832" style="stroke:#181818;stroke-width:1.0;"/><line style="stroke:#181818;stroke-width:1.0;" x1="387" x2="513" y1="389.2832" y2="389.2832"/><text fill="#000000" font-family="sans-serif" font-size="13" lengthAdjust="spacing" textLength="40" x="394" y="384.541">store()</text><polygon fill="#181818" points="865.5,414.5938,875.5,418.5938,865.5,422.5938,869.5,418.5938" style="stroke:#181818;stroke-width:1.0;"/><line style="stroke:#181818;stroke-width:1.0;" x1="519" x2="871.5" y1="418.5938" y2="418.5938"/><text fill="#000000" font-family="sans-serif" font-size="13" lengthAdjust="spacing" textLength="91" x="526" y="413.8516">dd::sdi::store()</text><line style="stroke:#181818;stroke-width:1.0;" x1="877.5" x2="919.5" y1="447.9043" y2="447.9043"/><line style="stroke:#181818;stroke-width:1.0;" x1="919.5" x2="919.5" y1="447.9043" y2="460.9043"/><line style="stroke:#181818;stroke-width:1.0;" x1="878.5" x2="919.5" y1="460.9043" y2="460.9043"/><polygon fill="#181818" points="888.5,456.9043,878.5,460.9043,888.5,464.9043,884.5,460.9043" style="stroke:#181818;stroke-width:1.0;"/><text fill="#000000" font-family="sans-serif" font-size="13" lengthAdjust="spacing" textLength="191" x="884.5" y="443.1621">sdi_tablespace::store_tbl_sdi()</text><rect fill="#EEEEEE" height="3" style="stroke:#EEEEEE;stroke-width:1.0;" width="1503" x="0" y="489.5596"/><line style="stroke:#000000;stroke-width:1.0;" x1="0" x2="1503" y1="489.5596" y2="489.5596"/><line style="stroke:#000000;stroke-width:1.0;" x1="0" x2="1503" y1="492.5596" y2="492.5596"/><rect fill="#EEEEEE" height="23.3105" style="stroke:#000000;stroke-width:2.0;" width="211" x="646" y="478.9043"/><text fill="#000000" font-family="sans-serif" font-size="13" font-weight="bold" lengthAdjust="spacing" textLength="193" x="652" y="495.4727">Storage Engine (Tablespace)</text><polygon fill="#181818" points="1070.5,529.5254,1080.5,533.5254,1070.5,537.5254,1074.5,533.5254" style="stroke:#181818;stroke-width:1.0;"/><line style="stroke:#181818;stroke-width:1.0;" x1="877.5" x2="1076.5" y1="533.5254" y2="533.5254"/><text fill="#000000" font-family="sans-serif" font-size="13" lengthAdjust="spacing" textLength="103" x="884.5" y="528.7832">handlerton::sdi()</text><polygon fill="#181818" points="1236.5,558.8359,1246.5,562.8359,1236.5,566.8359,1240.5,562.8359" style="stroke:#181818;stroke-width:1.0;"/><line style="stroke:#181818;stroke-width:1.0;" x1="1082.5" x2="1242.5" y1="562.8359" y2="562.8359"/><text fill="#000000" font-family="sans-serif" font-size="13" lengthAdjust="spacing" textLength="142" x="1089.5" y="558.0938">::sdi() implementation.</text><polygon fill="#181818" points="1440.5,588.1465,1450.5,592.1465,1440.5,596.1465,1444.5,592.1465" style="stroke:#181818;stroke-width:1.0;"/><line style="stroke:#181818;stroke-width:1.0;" x1="1248.5" x2="1446.5" y1="592.1465" y2="592.1465"/><text fill="#000000" font-family="sans-serif" font-size="13" lengthAdjust="spacing" textLength="180" x="1255.5" y="587.4043">write metadata in tablespace</text><!--SRC=[XPDFSzem4CNl_XGxEPa37fAqcLIJT4gm-uUQ9e19snCZB0KqOyiUIQObdxwhjGCfTAONORI_NJs_9mFmt5K6X2Y0MpWRpP9Xba0sl4iJc3RIxCu2W9eRft9LS-t0IhELXk39RZvDOKuRnvXnXCmQxLGfZwj2K3NcZaEiSgSgpK-F4iBz2uEChugJaLOeWb6EueLwbk9ronVzL9cI-x_7ZHjNQUhypBKef76dY9NjQ7IAhoKaUgtqYG1d2I9njkOv0aXuO_llNrnZ4CSfJ1V9x2TaoOyCWTjRYA88V_2vev17-nY487_BlF6Y8Q-4nEFS1dfjqx4fD03Ri1dTPRWmbXl9dLmwBodiaPgsxgUl6bK8mh9z7I-3scABHzfnD_r-noD982Xj7TUvR7Nyr-yJPHPjV2t79zVgnITSzcLVsDTnRL-4lEsmfLiLIwo4dIb_9mJX8OnUvt0xaZ9diDadJcVJ52fHOWXqsw3Akf2br8xUAAAeF8IPC_Xb53fMIiU5pqHfEEZqL-23rA8fYo1uAF2UB2OfOCZMEtCUNGmkBgEhy3kwDwmDdB-3mO0DBjdRQnZDC_3bNX1-UaZ1Let9CHXbdL4hkXIzOCot7BflZC5zBVKu_lgoWIvibQcqrnsC7oS7uEfD_qwvxik5nqaGooVU50uxy9uflMQmo3xshuEKwtM3XZ9utWIZ2kUQ7OFHjpy0]--></g></svg>
